<svg xmlns="http://www.w3.org/2000/svg" xmlns:xlink="http://www.w3.org/1999/xlink" width="500" zoomAndPan="magnify" viewBox="0 0 375 374.999991" height="500" preserveAspectRatio="xMidYMid meet" version="1.0"><defs><clipPath id="8e93a143ff"><path d="M 188.371094 166 L 287 166 L 287 263.773438 L 188.371094 263.773438 Z M 188.371094 166 " clip-rule="nonzero"/></clipPath><clipPath id="01b2d4f221"><path d="M 90 107.996094 L 188.25 107.996094 L 188.25 206 L 90 206 Z M 90 107.996094 " clip-rule="nonzero"/></clipPath></defs><path stroke-linecap="round" transform="matrix(0.114779, 0, 0, -0.114693, 18.519437, 393.835815)" fill="none" stroke-linejoin="round" d="M 1990.611007 2907.70229 L 2493.887467 2531.799533 " stroke="#383536" stroke-width="20" stroke-opacity="1" stroke-miterlimit="10"/><path fill="#ffffff" d="M 253.484375 41.84375 C 261.035156 49.367188 261.058594 61.582031 253.53125 69.128906 C 246 76.675781 233.777344 76.699219 226.210938 69.175781 C 218.660156 61.652344 218.648438 49.425781 226.167969 41.890625 C 233.695312 34.332031 245.929688 34.308594 253.484375 41.84375 " fill-opacity="1" fill-rule="nonzero"/><path stroke-linecap="round" transform="matrix(0.114779, 0, 0, -0.114693, 18.519437, 393.835815)" fill="none" stroke-linejoin="round" d="M 2464.993653 2382.487429 L 2085.596441 1881.896805 " stroke="#383536" stroke-width="20" stroke-opacity="1" stroke-miterlimit="10"/><path fill="#ffffff" d="M 329.238281 129.195312 C 319.585938 138.746094 304.007812 138.65625 294.460938 129.011719 C 284.910156 119.363281 284.992188 103.800781 294.644531 94.257812 C 304.296875 84.714844 319.871094 84.796875 329.433594 94.441406 C 338.984375 104.085938 338.890625 119.652344 329.238281 129.195312 " fill-opacity="1" fill-rule="nonzero"/><g clip-path="url(#8e93a143ff)"><path fill="#ffffff" d="M 286.117188 215.042969 C 286.117188 241.972656 264.273438 263.785156 237.324219 263.785156 C 210.382812 263.785156 188.542969 241.972656 188.542969 215.042969 C 188.542969 188.125 210.382812 166.296875 237.324219 166.296875 C 264.273438 166.296875 286.117188 188.125 286.117188 215.042969 " fill-opacity="1" fill-rule="nonzero"/></g><path stroke-linecap="round" transform="matrix(-0.114779, 0, 0, 0.114693, 358.217765, -22.067284)" fill="none" stroke-linejoin="round" d="M 1990.601604 2907.711008 L 2493.912096 2531.808251 " stroke="#383536" stroke-width="20" stroke-opacity="1" stroke-miterlimit="10"/><path fill="#ffffff" d="M 123.253906 329.925781 C 115.699219 322.402344 115.679688 310.1875 123.207031 302.640625 C 130.738281 295.09375 142.960938 295.070312 150.523438 302.59375 C 158.078125 310.117188 158.089844 322.34375 150.570312 329.878906 C 143.042969 337.4375 130.804688 337.460938 123.253906 329.925781 " fill-opacity="1" fill-rule="nonzero"/><path stroke-linecap="round" transform="matrix(-0.114779, 0, 0, 0.114693, 358.217765, -22.067284)" fill="none" stroke-linejoin="round" d="M 2464.98425 2382.496147 L 2085.587038 1881.905523 " stroke="#383536" stroke-width="20" stroke-opacity="1" stroke-miterlimit="10"/><path fill="#ffffff" d="M 47.5 242.574219 C 57.152344 233.019531 72.726562 233.113281 82.277344 242.757812 C 91.828125 252.402344 91.746094 267.96875 82.09375 277.511719 C 72.441406 287.050781 56.863281 286.972656 47.304688 277.328125 C 37.753906 267.679688 37.847656 252.117188 47.5 242.574219 " fill-opacity="1" fill-rule="nonzero"/><g clip-path="url(#01b2d4f221)"><path fill="#ffffff" d="M 90.621094 156.726562 C 90.621094 129.796875 112.464844 107.984375 139.414062 107.984375 C 166.351562 107.984375 188.195312 129.796875 188.195312 156.726562 C 188.195312 183.644531 166.351562 205.472656 139.414062 205.472656 C 112.464844 205.472656 90.621094 183.644531 90.621094 156.726562 " fill-opacity="1" fill-rule="nonzero"/></g></svg>