<svg class="wave" xmlns="http://www.w3.org/2000/svg" viewBox="0 0 1440 100">
    <path fill="#f1f2f5" fill-opacity="1" d="M0,0L34.3,16C68.6,32,137,64,206,69.3C274.3,75,343,53,411,48C480,43,549,53,617,53.3C685.7,53,754,43,823,42.7C891.4,43,960,53,1029,69.3C1097.1,85,1166,107,1234,101.3C1302.9,96,1371,64,1406,48L1440,32L1440,160L1405.7,160C1371.4,160,1303,160,1234,160C1165.7,160,1097,160,1029,160C960,160,891,160,823,160C754.3,160,686,160,617,160C548.6,160,480,160,411,160C342.9,160,274,160,206,160C137.1,160,69,160,34,160L0,160Z"></path>
</svg>
